<?xml version="1.0" encoding="iso-8859-1"?>
<!-- Generator: Adobe Illustrator 16.0.0, SVG Export Plug-In . SVG Version: 6.00 Build 0)  -->
<!DOCTYPE svg PUBLIC "-//W3C//DTD SVG 1.1//EN" "http://www.w3.org/Graphics/SVG/1.1/DTD/svg11.dtd">
<svg version="1.1" id="Capa_1" xmlns="http://www.w3.org/2000/svg" xmlns:xlink="http://www.w3.org/1999/xlink" x="0px" y="0px"
	 width="91.001px" height="91px" viewBox="0 0 91.001 91" style="enable-background:new 0 0 91.001 91;" xml:space="preserve">
<g>
	<g>
		<path d="M90.916,39.068c-0.514-2.364-3.475-2.014-7.143-0.408c-3.441,1.507-6.761,1.364-7.552-0.26
			c-0.824-1.684,3.709-7.213,6.811-7.828c3.639-0.717,4.43-3.368,2.856-5.153c-1.212-1.369-3.485-1.191-5.16,2.025
			c-2.196,4.224-6.887,8.348-9.138,7.542c-2.847-1.019-1.692-9.56,0.791-12.644c2.854-3.546,0.354-6.699-1.489-6.556
			c-1.756,0.137-3.939,2.443-2.717,5.417c1.479,3.597-0.814,11.789-2.594,12.241c-2.522,0.644-8.813-5.47-8.312-9.027
			c0.36-2.547-2.254-3.898-4.193-2.507c-1.375,0.984-1.797,3.345,0.618,5.247c3.335,2.623,8.358,8.187,6.524,10.212
			c-1.301,1.436-6.812,0.827-9.699-2.318c-2.479-2.7-5.105-2.186-5.91-0.439c-0.804,1.738,0.439,3.796,4.158,3.943
			c4.457,0.176,10.14,3.104,9.783,4.772c-0.659,3.112-2.367,7.909,1.823,7.2c2.598-0.442,4.558-2.5,6.179-2.056
			c2.94,0.804,7.108,4.485,9.629,3.063c3.709-2.089-1.284-5.021,1.649-8.311c0.96-1.077,4.573-3.085,7.285-1.644
			C89.114,43.707,91.491,41.718,90.916,39.068z"/>
		<path d="M40.48,58.412c-2.887,3.143-8.4,3.75-9.698,2.317c-1.834-2.025,3.188-7.589,6.524-10.213
			c2.412-1.899,1.993-4.261,0.618-5.247c-1.939-1.394-4.554-0.042-4.192,2.508c0.505,3.557-5.791,9.67-8.313,9.026
			c-1.782-0.449-4.071-8.644-2.592-12.242c1.219-2.973-0.96-5.282-2.717-5.417c-1.843-0.144-4.342,3.012-1.49,6.556
			c2.481,3.083,3.638,11.626,0.792,12.644c-2.251,0.805-6.942-3.319-9.138-7.541c-1.674-3.217-3.95-3.395-5.16-2.026
			C3.54,50.56,4.331,53.21,7.968,53.931c3.104,0.613,7.636,6.141,6.812,7.826c-0.793,1.624-4.112,1.766-7.552,0.26
			c-3.666-1.607-6.63-1.954-7.143,0.409c-0.575,2.65,1.803,4.64,5.797,2.514c2.712-1.442,6.325,0.567,7.286,1.645
			c2.934,3.289-2.061,6.221,1.648,8.31c2.521,1.424,6.688-2.258,9.628-3.063c1.622-0.442,3.582,1.613,6.181,2.056
			c4.19,0.709,2.48-4.088,1.823-7.199c-0.353-1.67,5.325-4.599,9.782-4.772c3.723-0.146,4.962-2.203,4.16-3.943
			C45.584,56.224,42.961,55.71,40.48,58.412z"/>
	</g>
</g>
<g>
</g>
<g>
</g>
<g>
</g>
<g>
</g>
<g>
</g>
<g>
</g>
<g>
</g>
<g>
</g>
<g>
</g>
<g>
</g>
<g>
</g>
<g>
</g>
<g>
</g>
<g>
</g>
<g>
</g>
</svg>
